<?xml version="1.0" encoding="UTF-8"?>
<svg xmlns="http://www.w3.org/2000/svg" viewBox="0 0 816.06 816.06">
  <path d="m816.06,668.88v147.19H0v-292.44c135.92,8.39,261.13,42.72,464.21,109.04,93.73,30.6,184.13,40.24,262.6,40.24,31.93,0,61.87-1.59,89.26-4.02Z" fill="#1a5e63"/>
  <path d="m816.06,389.82v247.55c-92.05,8.39-214.21,7.26-342.13-34.52-60.02-19.6-113.32-36.42-162.21-50.66,51-15.68,103.86-37.05,162.55-60.78,55.81-22.6,113.56-45.93,178.85-68.17,60.12-20.46,116.48-29.73,162.94-33.42Z" fill="#3b8c8c"/>
  <path d="m816.06,244.39v113.74c-48.97,3.76-108.7,13.53-173.03,35.43-66.16,22.5-124.3,46.04-180.53,68.77-77.68,31.43-144.96,58.63-210.1,73.32-92.21-24.46-170.1-38.51-252.41-43.45v-247.81h816.06Z" fill="#7ccbcb"/>
  <rect width="816.06" height="213.03" fill="#7ccbcb"/>
  <rect y="213.03" width="816.06" height="31.35" fill="#7ccbcb"/>
  <rect y="213.03" width="816.06" height="31.35" fill="#f8f8f8"/>
  <path d="m474.27,491.41c-58.69,23.73-111.55,45.1-162.55,60.78,48.89,14.24,102.19,31.07,162.21,50.66,127.93,41.78,250.08,42.9,342.13,34.52v31.51c-27.38,2.43-57.33,4.02-89.26,4.02-78.47,0-168.87-9.64-262.6-40.24-203.08-66.32-328.29-100.65-464.21-109.04v-31.43c82.31,4.94,160.2,19,252.41,43.45,65.14-14.68,132.42-41.88,210.1-73.32,56.23-22.73,114.37-46.27,180.53-68.77,64.33-21.9,124.06-31.67,173.03-35.43v31.69c-46.46,3.68-102.82,12.96-162.94,33.42-65.3,22.24-123.04,45.57-178.85,68.17Z" fill="#f8f8f8"/>
</svg>
