<svg xmlns="http://www.w3.org/2000/svg" viewBox="2 2 2082.1399 1154.4" width="2082.14px" height="1154.4px">
  <path d="M 144.06 4.21 C 145.53 5.69 146.27 7.47 146.27 9.57 L 146.27 57.45 C 146.27 59.56 145.53 61.34 144.06 62.8 C 142.59 64.26 140.8 65.01 138.71 65.01 L 92.09 65.01 C 89.98 65.01 88.2 64.28 86.74 62.8 C 85.26 61.33 84.53 59.55 84.53 57.45 L 84.53 9.57 C 84.53 7.47 85.26 5.69 86.74 4.21 C 88.22 2.73 89.99 2 92.09 2 L 138.71 2 C 140.81 2 142.59 2.74 144.06 4.21 Z M 95.86 109.1 L 136.18 109.1 C 140.8 109.1 143.11 111.41 143.11 116.03 L 143.11 429.77 C 143.11 431.88 142.48 433.55 141.22 434.81 C 139.96 436.07 138.28 436.7 136.18 436.7 L 95.86 436.7 C 93.75 436.7 91.97 436.07 90.51 434.81 C 89.03 433.55 88.3 431.88 88.3 429.77 L 88.3 116.03 C 88.3 111.41 90.82 109.1 95.86 109.1 Z"/>
  <path d="M 302.19 170.53 C 297.78 174.94 295.57 181.14 295.57 189.11 L 295.57 429.14 C 295.57 431.25 294.83 433.03 293.37 434.49 C 291.89 435.97 290.11 436.7 288.01 436.7 L 248.32 436.7 C 246.21 436.7 244.43 435.97 242.97 434.49 C 241.49 433.02 240.76 431.24 240.76 429.14 L 240.76 182.81 C 240.76 179.03 242.02 175.88 244.54 173.36 L 298.72 112.88 C 301.24 110.36 304.39 109.1 308.17 109.1 L 359.2 109.1 L 359.2 163.91 L 320.77 163.91 C 312.79 163.91 306.6 166.12 302.19 170.53 Z M 454.33 112.88 L 508.51 173.36 C 511.03 175.88 512.29 179.03 512.29 182.81 L 512.29 429.14 C 512.29 431.25 511.55 433.03 510.08 434.49 C 508.61 435.95 506.82 436.7 504.72 436.7 L 465.03 436.7 C 462.92 436.7 461.14 435.97 459.67 434.49 C 458.19 433.02 457.46 431.24 457.46 429.14 L 457.46 189.11 C 457.46 181.14 455.25 174.94 450.85 170.53 C 446.44 166.12 440.24 163.91 432.26 163.91 L 393.83 163.91 L 393.83 109.1 L 444.86 109.1 C 448.64 109.1 451.79 110.36 454.31 112.88 L 454.33 112.88 Z"/>
  <path d="M 2084.14 393.86 L 2084.14 429.77 C 2084.14 434.4 2081.83 436.7 2077.21 436.7 L 623.17 436.7 C 621.06 436.7 619.39 436.07 618.13 434.81 C 616.87 433.55 616.24 431.88 616.24 429.77 L 616.24 393.86 C 616.24 391.76 616.87 389.98 618.13 388.51 C 619.39 387.04 621.06 386.3 623.17 386.3 L 2077.21 386.3 C 2081.83 386.3 2084.14 388.82 2084.14 393.86 Z"/>
  <path d="M 154.45 1104.74 L 110.98 1153.25 C 109.72 1154.51 108.24 1155.35 106.57 1155.77 C 104.89 1156.18 103 1156.4 100.9 1156.4 L 9.55 1156.4 C 7.45 1156.4 5.67 1155.66 4.2 1154.19 C 2.73 1152.71 2 1150.93 2 1148.83 L 2 1109.14 C 2 1107.03 2.74 1105.25 4.2 1103.78 C 5.68 1102.3 7.46 1101.57 9.55 1101.57 L 78.22 1101.57 C 95.01 1101.57 103.42 1093.16 103.42 1076.37 L 103.42 716.01 C 103.42 711.39 105.94 709.08 110.98 709.08 L 151.3 709.08 C 155.92 709.08 158.23 711.39 158.23 716.01 L 158.23 1094.64 C 158.23 1098.83 156.97 1102.2 154.45 1104.72 L 154.45 1104.74 Z M 157.92 604.21 C 159.39 605.69 160.13 607.47 160.13 609.57 L 160.13 657.45 C 160.13 659.56 159.39 661.34 157.92 662.8 C 156.45 664.26 154.66 665.01 152.57 665.01 L 105.95 665.01 C 103.84 665.01 102.06 664.28 100.6 662.8 C 99.12 661.33 98.39 659.55 98.39 657.45 L 98.39 609.57 C 98.39 607.47 99.12 605.69 100.6 604.21 C 102.08 602.73 103.85 602 105.95 602 L 152.57 602 C 154.67 602 156.45 602.74 157.92 604.21 Z"/>
  <path d="M 310.38 1035.44 C 308.49 1034.6 307.12 1033.77 306.28 1032.92 L 252.1 972.44 C 249.58 969.92 248.32 966.77 248.32 962.99 L 248.32 782.81 C 248.32 781.14 248.73 779.34 249.58 777.45 C 250.42 775.56 251.25 774.2 252.1 773.36 L 306.28 712.88 C 308.8 710.36 311.95 709.1 315.73 709.1 L 366.76 709.1 L 366.76 763.91 L 328.33 763.91 C 320.35 763.91 314.15 766.12 309.74 770.53 C 305.33 774.94 303.12 781.14 303.12 789.11 L 303.12 956.69 C 303.12 964.67 305.33 970.86 309.74 975.27 C 314.15 979.68 320.34 981.89 328.33 981.89 L 366.76 981.89 L 366.76 1036.7 L 315.73 1036.7 C 314.05 1036.7 312.26 1036.29 310.37 1035.44 L 310.38 1035.44 Z M 401.41 981.89 L 439.84 981.89 C 447.81 981.89 454.01 979.68 458.42 975.27 C 462.83 970.86 465.04 964.67 465.04 956.69 L 465.04 789.11 C 465.04 781.14 462.83 774.94 458.42 770.53 C 454.01 766.12 447.81 763.91 439.84 763.91 L 401.41 763.91 L 401.41 709.1 L 452.44 709.1 C 456.22 709.1 459.37 710.36 461.89 712.88 L 516.07 773.36 C 518.59 775.88 519.85 779.03 519.85 782.81 L 519.85 962.99 C 519.85 966.77 518.59 969.92 516.07 972.44 L 461.89 1032.92 C 459.37 1035.44 456.22 1036.7 452.44 1036.7 L 401.41 1036.7 L 401.41 981.89 Z"/>
  <path d="M 667.59 604.21 C 669.06 605.69 669.8 607.47 669.8 609.57 L 669.8 657.45 C 669.8 659.56 669.06 661.34 667.59 662.8 C 666.12 664.26 664.33 665.01 662.23 665.01 L 615.61 665.01 C 613.5 665.01 611.72 664.28 610.26 662.8 C 608.78 661.33 608.05 659.55 608.05 657.45 L 608.05 609.57 C 608.05 607.47 608.78 605.69 610.26 604.21 C 611.74 602.73 613.51 602 615.61 602 L 662.23 602 C 664.33 602 666.11 602.74 667.59 604.21 Z M 619.39 709.1 L 659.71 709.1 C 664.33 709.1 666.64 711.41 666.64 716.03 L 666.64 1029.77 C 666.64 1031.88 666.01 1033.55 664.75 1034.81 C 663.49 1036.07 661.81 1036.7 659.71 1036.7 L 619.39 1036.7 C 617.28 1036.7 615.5 1036.07 614.04 1034.81 C 612.56 1033.55 611.83 1031.88 611.83 1029.77 L 611.83 716.03 C 611.83 711.41 614.35 709.1 619.39 709.1 Z"/>
  <path d="M 825.72 770.53 C 821.31 774.94 819.1 781.14 819.1 789.11 L 819.1 1029.14 C 819.1 1031.25 818.36 1033.03 816.9 1034.49 C 815.42 1035.97 813.64 1036.7 811.54 1036.7 L 771.85 1036.7 C 769.74 1036.7 767.96 1035.97 766.5 1034.49 C 765.02 1033.02 764.29 1031.24 764.29 1029.14 L 764.29 782.81 C 764.29 779.03 765.55 775.88 768.07 773.36 L 822.25 712.88 C 824.77 710.36 827.92 709.1 831.7 709.1 L 882.73 709.1 L 882.73 763.91 L 844.3 763.91 C 836.32 763.91 830.13 766.12 825.72 770.53 Z M 977.86 712.88 L 1032.04 773.36 C 1034.56 775.88 1035.82 779.03 1035.82 782.81 L 1035.82 1029.14 C 1035.82 1031.25 1035.08 1033.03 1033.61 1034.49 C 1032.14 1035.95 1030.35 1036.7 1028.25 1036.7 L 988.56 1036.7 C 986.45 1036.7 984.67 1035.97 983.2 1034.49 C 981.72 1033.02 980.99 1031.24 980.99 1029.14 L 980.99 789.11 C 980.99 781.14 978.78 774.94 974.38 770.53 C 969.97 766.12 963.77 763.91 955.79 763.91 L 917.36 763.91 L 917.36 709.1 L 968.39 709.1 C 972.17 709.1 975.32 710.36 977.84 712.88 L 977.86 712.88 Z"/>
  <path d="M 1191.75 770.53 C 1187.34 774.94 1185.13 781.14 1185.13 789.11 L 1185.13 842.03 L 1246.87 842.03 L 1246.87 896.84 L 1185.13 896.84 L 1185.13 956.69 C 1185.13 964.67 1187.34 970.86 1191.75 975.27 C 1196.16 979.68 1202.35 981.89 1210.33 981.89 L 1246.87 981.89 L 1246.87 1036.7 L 1198.36 1036.7 C 1196.25 1036.7 1194.27 1036.29 1192.37 1035.44 C 1190.48 1034.6 1189.11 1033.77 1188.28 1032.92 L 1134.1 972.44 C 1131.58 969.92 1130.32 966.77 1130.32 962.99 L 1130.32 782.81 C 1130.32 781.14 1130.73 779.34 1131.58 777.45 C 1132.42 775.56 1133.25 774.2 1134.1 773.36 L 1188.28 712.88 C 1190.8 710.36 1193.95 709.1 1197.73 709.1 L 1246.87 709.1 L 1246.87 763.91 L 1210.33 763.91 C 1202.35 763.91 1196.16 766.12 1191.75 770.53 Z M 1332.87 770.53 C 1328.46 766.12 1322.26 763.91 1314.29 763.91 L 1281.53 763.91 L 1281.53 709.1 L 1326.89 709.1 C 1330.67 709.1 1333.82 710.36 1336.34 712.88 L 1390.52 773.36 C 1393.04 775.88 1394.3 779.03 1394.3 782.81 L 1394.3 830.69 C 1394.3 834.47 1393.04 837.62 1390.52 840.14 L 1342.01 893.69 C 1339.49 896.21 1336.34 897.47 1332.56 897.47 L 1281.53 897.47 L 1281.53 842.66 L 1314.29 842.66 C 1322.26 842.66 1328.46 840.45 1332.87 836.04 C 1337.28 831.63 1339.49 825.44 1339.49 817.46 L 1339.49 789.11 C 1339.49 781.14 1337.28 774.94 1332.87 770.53 Z M 1358.38 934.01 C 1360.48 934.01 1362.37 934.86 1364.05 936.53 L 1390.51 962.36 C 1392.18 964.04 1393.03 965.73 1393.03 967.4 C 1393.03 969.07 1392.18 970.77 1390.51 972.44 L 1336.33 1032.92 C 1333.81 1035.44 1330.44 1036.7 1326.25 1036.7 L 1281.52 1036.7 L 1281.52 981.89 L 1296.64 981.89 C 1302.52 981.89 1307.13 981.26 1310.5 980 C 1313.86 978.74 1317.43 976.01 1321.21 971.81 L 1353.34 936.53 C 1355.01 934.86 1356.7 934.01 1358.38 934.01 Z"/>
  <path d="M 1551.48 770.53 C 1547.07 774.94 1544.86 781.14 1544.86 789.11 L 1544.86 1029.14 C 1544.86 1031.25 1544.12 1033.03 1542.66 1034.49 C 1541.18 1035.97 1539.4 1036.7 1537.3 1036.7 L 1497.61 1036.7 C 1495.5 1036.7 1493.72 1035.97 1492.26 1034.49 C 1490.78 1033.02 1490.05 1031.24 1490.05 1029.14 L 1490.05 782.81 C 1490.05 779.03 1491.31 775.88 1493.83 773.36 L 1548.01 712.88 C 1550.53 710.36 1553.68 709.1 1557.46 709.1 L 1595.89 709.1 L 1595.89 763.91 L 1570.06 763.91 C 1562.08 763.91 1555.89 766.12 1551.48 770.53 Z M 1683.78 831.63 C 1682.3 830.16 1681.57 828.38 1681.57 826.28 L 1681.57 789.11 C 1681.57 781.14 1679.37 774.94 1674.96 770.53 C 1670.55 766.12 1664.35 763.91 1656.38 763.91 L 1630.55 763.91 L 1630.55 709.1 L 1668.98 709.1 C 1672.76 709.1 1675.91 710.36 1678.43 712.88 L 1732.61 773.36 C 1735.13 775.88 1736.39 779.03 1736.39 782.81 L 1736.39 826.28 C 1736.39 828.39 1735.65 830.17 1734.18 831.63 C 1732.7 833.11 1730.92 833.84 1728.82 833.84 L 1689.13 833.84 C 1687.02 833.84 1685.24 833.11 1683.77 831.63 L 1683.78 831.63 Z"/>
  <path d="M 1877.5 999.526 L 1781.11 714.14 C 1781.11 710.78 1783.41 709.1 1788.04 709.1 L 1830.88 709.1 C 1835.07 709.1 1837.81 711.21 1839.07 715.4 L 1908.37 918.89 L 1882.54 999.526 C 1882.12 1001.21 1881.28 1002.05 1880.02 1002.05 C 1878.76 1002.05 1877.91 1001.21 1877.5 999.526 Z M 1795.29 1154.2 C 1793.81 1152.72 1793.08 1150.94 1793.08 1148.84 L 1793.08 1109.15 C 1793.08 1107.04 1793.81 1105.26 1795.29 1103.79 C 1796.76 1102.31 1798.54 1101.58 1800.64 1101.58 L 1864.27 1101.58 C 1870.15 1101.58 1875.39 1099.9 1880.02 1096.54 C 1884.64 1093.17 1887.79 1088.56 1889.47 1082.68 L 2004.76 715.39 C 2006.02 711.2 2008.75 709.09 2012.95 709.09 L 2054.53 709.09 C 2059.15 709.09 2061.46 710.77 2061.46 714.13 C 2061.46 720.02 2021.77 846.85 1942.39 1094.65 C 1941.54 1098.01 1939.65 1101.16 1936.72 1104.1 L 1895.14 1150.72 C 1893.03 1152.82 1890.94 1154.28 1888.84 1155.13 C 1886.73 1155.97 1884.01 1156.39 1880.65 1156.39 L 1800.64 1156.39 C 1798.53 1156.39 1796.75 1155.65 1795.29 1154.18 L 1795.29 1154.2 Z"/>
</svg>