<svg xmlns="http://www.w3.org/2000/svg" xmlns:xlink="http://www.w3.org/1999/xlink" width="1200" zoomAndPan="magnify" viewBox="0 0 900 899.99999" height="1200" preserveAspectRatio="xMidYMid meet" version="1.0"><path fill="#7ccbcb" d="M 676.25 733.359375 C 614.605469 782.597656 536.492188 812.082031 451.65625 812.082031 C 314.96875 812.082031 195.832031 735.621094 134.730469 623.214844 C 209.769531 582.710938 262.789062 519.703125 312.1875 461.078125 C 319.070312 452.867188 325.992188 444.652344 332.941406 436.546875 C 358.351562 406.808594 384.964844 376.152344 429.890625 358.792969 L 423.460938 361.894531 C 394.746094 411.066406 381.117188 510.226562 425.589844 599.164062 C 470.039062 688.070312 569.449219 731.519531 676.238281 733.359375 Z M 676.25 733.359375 " fill-opacity="1" fill-rule="nonzero"/><path fill="#f8f8f8" d="M 812.097656 451.640625 C 812.097656 464.832031 811.390625 477.890625 809.964844 490.726562 C 809.964844 490.726562 809.992188 490.75 809.964844 490.792969 C 790.4375 582.125 671.246094 605.75 591.203125 560.984375 C 511.117188 516.203125 493.015625 367.792969 600.28125 305.292969 C 590.164062 299.089844 568.171875 286.894531 543.933594 280.945312 C 510.640625 272.796875 461.8125 269.429688 420.105469 281.332031 C 382.925781 291.902344 326.871094 318.246094 271 383.617188 C 263.921875 391.898438 256.90625 400.273438 249.863281 408.644531 C 203.632812 463.542969 160.765625 514.460938 104.125 547.339844 L 104.125 547.3125 C 95.726562 516.828125 91.226562 484.789062 91.226562 451.65625 C 91.226562 252.925781 252.9375 91.253906 451.695312 91.253906 C 650.453125 91.253906 812.097656 252.9375 812.097656 451.65625 Z M 812.097656 451.640625 " fill-opacity="1" fill-rule="nonzero"/><path fill="#1a5e63" d="M 451.683594 7.695312 C 206.851562 7.695312 7.667969 206.839844 7.667969 451.640625 C 7.667969 495.410156 14.03125 537.730469 25.90625 577.730469 C 55.125 571.328125 80.765625 560.890625 104.113281 547.339844 L 104.113281 547.3125 C 95.714844 516.828125 91.214844 484.789062 91.214844 451.65625 C 91.214844 252.925781 252.925781 91.253906 451.683594 91.253906 C 650.4375 91.253906 812.082031 252.9375 812.082031 451.65625 C 812.082031 464.847656 811.378906 477.90625 809.953125 490.738281 C 809.953125 490.738281 809.980469 490.765625 809.953125 490.804688 C 790.425781 582.136719 671.230469 605.765625 591.1875 560.996094 C 511.105469 516.21875 493 367.804688 600.265625 305.304688 L 599.203125 305.304688 C 588.59375 305.304688 500.496094 309.019531 472.183594 431.78125 C 442.019531 562.488281 530.660156 662.125 666.867188 666.71875 C 800.222656 671.179688 862.269531 623.523438 886.535156 538.3125 C 886.5625 538.246094 886.601562 538.179688 886.601562 538.089844 C 887.121094 536.34375 887.601562 534.601562 888.054688 532.816406 C 888.214844 532.164062 888.347656 531.59375 888.480469 531.007812 C 888.480469 531.007812 888.488281 530.996094 888.507812 530.980469 C 888.574219 530.621094 888.640625 530.300781 888.707031 529.980469 C 888.867188 529.207031 889 528.488281 889.089844 527.851562 C 893.390625 503.117188 895.628906 477.640625 895.628906 451.679688 C 895.628906 206.890625 696.445312 7.734375 451.683594 7.734375 Z M 451.683594 7.695312 " fill-opacity="1" fill-rule="nonzero"/><path fill="#1a5e63" d="M 888.066406 532.789062 C 887.707031 534.375 887.226562 536.15625 886.617188 538.0625 C 887.132812 536.316406 887.613281 534.574219 888.066406 532.789062 Z M 888.066406 532.789062 " fill-opacity="1" fill-rule="nonzero"/><path fill="#3b8c8c" d="M 888.492188 530.980469 C 888.492188 530.980469 888.519531 530.953125 888.519531 530.941406 C 888.585938 530.605469 888.640625 530.273438 888.707031 529.941406 C 888.640625 530.273438 888.558594 530.632812 888.492188 530.980469 Z M 423.472656 361.894531 C 394.746094 411.082031 381.128906 510.226562 425.589844 599.148438 C 470.050781 688.085938 569.476562 731.507812 676.238281 733.359375 C 614.617188 782.597656 536.503906 812.082031 451.65625 812.082031 C 314.96875 812.082031 195.832031 735.605469 134.730469 623.214844 C 209.769531 582.710938 262.800781 519.703125 312.175781 461.054688 C 319.070312 452.867188 325.980469 444.667969 332.929688 436.519531 C 358.339844 406.78125 384.949219 376.152344 429.890625 358.792969 L 423.472656 361.882812 Z M 871.054688 570.0625 C 870.175781 571.421875 869.21875 572.777344 868.207031 574.164062 C 866.753906 576.226562 865.171875 578.328125 863.453125 580.40625 C 801.3125 653.15625 673.722656 662.84375 595.847656 637.5 C 509.402344 608.054688 474.019531 539.234375 476.214844 458.964844 C 478.277344 382.886719 522.964844 319.761719 600.265625 305.28125 C 590.148438 299.078125 568.160156 286.882812 543.917969 280.933594 C 510.625 272.785156 461.796875 269.417969 420.09375 281.320312 C 382.914062 291.886719 326.859375 318.230469 270.988281 383.605469 C 263.90625 391.886719 256.890625 400.257812 249.847656 408.632812 C 203.617188 463.527344 160.753906 514.445312 104.113281 547.328125 C 80.777344 560.878906 55.140625 571.3125 25.90625 577.71875 C 33.761719 604.261719 44.078125 629.765625 56.523438 654.019531 C 130.230469 797.332031 279.652344 895.613281 451.65625 895.613281 C 599.46875 895.613281 730.628906 823 811.378906 711.566406 C 837.695312 675.226562 858.675781 634.785156 873.0625 591.363281 C 879.601562 571.808594 884.765625 551.625 888.480469 530.964844 C 886.667969 539.246094 881.890625 553.824219 871.054688 570.050781 Z M 871.054688 570.0625 " fill-opacity="1" fill-rule="nonzero"/></svg>